# Blender v2.74 (sub 0) OBJ File: 'Worm.blend'
# www.blender.org
mtllib Eyes.mtl
o Inst3D_RefRep.225_Ref
v 0.152182 3.779418 1.225996
v 0.085929 3.387878 1.144907
v 0.427272 3.332372 1.123801
v -0.371090 3.331510 1.124500
v -0.026700 3.387512 1.145795
v -0.093544 3.782548 1.227608
v 0.273164 2.859451 0.936726
v 0.456077 2.970235 0.880863
v -0.400153 2.966139 0.879392
v -0.215606 2.854366 0.935754
v 0.755651 3.662933 0.895662
v 0.667795 3.266290 0.857478
v -0.613762 3.264838 0.855799
v -0.702402 3.665023 0.894323
v 0.624588 3.812411 1.007137
v -0.570168 3.815835 1.006794
v 0.369661 3.853271 1.178214
v -0.312965 3.857060 1.179399
v 0.139219 2.947508 0.993902
v -0.080466 2.943209 0.993441
v 0.726846 3.270206 0.795286
v 0.850709 3.684633 0.849799
v -0.798308 3.686916 0.848051
v -0.673340 3.268789 0.793051
v 0.507926 2.900556 0.849658
v -0.452465 2.895838 0.847909
v 0.692280 3.891012 1.036501
v -0.638465 3.895138 1.036420
v 0.388385 3.938043 1.223977
v -0.331856 3.942590 1.225570
v 0.028319 4.010750 1.283389
v 0.031425 4.015945 1.285513
v 0.028319 3.821761 1.316317
v 0.031425 3.825268 1.318735
v 0.291887 2.802719 0.979582
v -0.234497 2.797128 0.978993
v 0.028319 3.406473 1.237335
v 0.028319 2.980801 1.094460
v 0.031425 2.976799 1.094896
v 0.031425 3.406273 1.239047
vt 0.746000 0.810000
vt 0.837000 0.497000
vt 0.541000 0.470000
vt 0.653000 0.122000
vt 0.474000 0.184000
vt 0.180000 0.634000
vt 0.266000 0.372000
vt 0.286000 0.789000
vt 0.534000 0.848000
vt 0.784000 0.187000
vt 0.179000 0.332000
vt 0.065000 0.641000
vt 0.281000 0.156000
vt 0.220000 0.888000
vt 0.533000 0.966000
vt 0.841000 0.922000
vt 0.894000 0.826000
vt 0.672000 0.047000
vt 0.931000 0.513000
vt 0.894000 0.151000
vn 0.350400 -0.127500 0.927900
vn 0.503200 -0.197900 0.841200
vn 0.385900 -0.264900 0.883700
vn -0.385900 -0.264900 0.883700
vn -0.503200 -0.197900 0.841200
vn -0.350400 -0.127500 0.927900
vn 0.440300 0.247700 0.863000
vn 0.443400 -0.281000 0.851100
vn -0.443400 -0.281000 0.851100
vn -0.440300 0.247700 0.863000
vn 0.517100 -0.235100 0.822900
vn 0.668100 -0.299300 0.681300
vn -0.668100 -0.299300 0.681300
vn -0.517100 -0.235100 0.822900
vn 0.421200 -0.341900 0.840000
vn -0.421200 -0.341900 0.840000
vn 0.331200 -0.278000 0.901700
vn -0.331200 -0.278000 0.901700
vn 0.516400 0.105600 0.849800
vn -0.516400 0.105600 0.849800
vn 0.700300 -0.304100 0.645800
vn 0.490100 -0.278800 0.825800
vn -0.490100 -0.278800 0.825800
vn -0.700300 -0.304100 0.645800
vn 0.372100 -0.085800 0.924200
vn -0.372100 -0.085700 0.924200
vn 0.312800 -0.521100 0.794100
vn -0.312800 -0.521100 0.794100
vn 0.217800 -0.508900 0.832800
vn -0.217800 -0.508900 0.832800
vn 0.385500 -0.073400 0.919800
vn -0.385500 -0.073400 0.919800
vn 0.609900 -0.014400 0.792400
vn -0.609900 -0.014400 0.792400
vn 0.401800 0.635700 0.659100
vn -0.401800 0.635700 0.659100
vn 0.819800 -0.110900 0.561800
vn 0.651500 -0.100600 0.751900
vn -0.651500 -0.100600 0.751900
vn -0.819800 -0.110900 0.561800
usemtl RefRep.225_Eyes.p
s 1
f 1/1/1 2/2/2 3/3/3
f 4/3/4 5/2/5 6/1/6
f 3/3/3 7/4/7 8/5/8
f 9/5/9 10/4/10 4/3/4
f 11/6/11 3/3/3 12/7/12
f 13/7/13 4/3/4 14/6/14
f 15/8/15 3/3/3 11/6/11
f 14/6/14 4/3/4 16/8/16
f 17/9/17 3/3/3 15/8/15
f 16/8/16 4/3/4 18/9/18
f 1/1/1 3/3/3 17/9/17
f 18/9/18 4/3/4 6/1/6
f 3/3/3 2/2/2 19/10/19
f 20/10/20 5/2/5 4/3/4
f 12/7/12 21/11/21 22/12/22
f 23/12/23 24/11/24 13/7/13
f 12/7/12 22/12/22 11/6/11
f 14/6/14 23/12/23 13/7/13
f 12/7/12 8/5/8 25/13/25
f 26/13/26 9/5/9 13/7/13
f 12/7/12 25/13/25 21/11/21
f 24/11/24 26/13/26 13/7/13
f 11/6/11 22/12/22 27/14/27
f 28/14/28 23/12/23 14/6/14
f 11/6/11 27/14/27 15/8/15
f 16/8/16 28/14/28 14/6/14
f 15/8/15 27/14/27 29/15/29
f 30/15/30 28/14/28 16/8/16
f 15/8/15 29/15/29 17/9/17
f 18/9/18 30/15/30 16/8/16
f 17/9/17 29/15/29 31/16/31
f 32/16/32 30/15/30 18/9/18
f 31/16/31 1/1/1 17/9/17
f 6/1/6 32/16/32 18/9/18
f 33/17/33 1/1/1 31/16/31
f 6/1/6 34/17/34 32/16/32
f 7/4/7 35/18/35 25/13/25
f 26/13/26 36/18/36 10/4/10
f 7/4/7 25/13/25 8/5/8
f 9/5/9 26/13/26 10/4/10
f 37/19/37 38/20/38 19/10/19
f 20/10/20 39/20/39 40/19/40
f 19/10/19 2/2/2 37/19/37
f 40/19/40 5/2/5 20/10/20
f 12/7/12 3/3/3 8/5/8
f 9/5/9 4/3/4 13/7/13
f 3/3/3 19/10/19 7/4/7
f 10/4/10 20/10/20 4/3/4
f 19/10/19 38/20/38 35/18/35
f 36/18/36 39/20/39 20/10/20
f 19/10/19 35/18/35 7/4/7
f 10/4/10 36/18/36 20/10/20
f 37/19/37 2/2/2 33/17/33
f 34/17/34 5/2/5 40/19/40
f 2/2/2 1/1/1 33/17/33
f 6/1/6 5/2/5 34/17/34
