# Blender v2.74 (sub 0) OBJ File: 'Worm.blend'
# www.blender.org
mtllib Teeth.mtl
o Inst3D_RefRep.227_Ref
v 0.263082 2.402297 0.817084
v 0.240038 2.736748 0.851351
v 0.026879 2.750476 0.906650
v 0.026879 2.415571 0.885962
v 0.428712 2.712099 0.702508
v 0.460398 2.362031 0.655650
v 0.516568 2.337698 0.470004
v 0.520889 2.679616 0.468319
v -0.207884 2.388984 0.831455
v -0.184840 2.736748 0.851351
v -0.373514 2.711575 0.704476
v -0.467131 2.679092 0.470287
v -0.462810 2.337174 0.471972
v -0.406640 2.361506 0.657618
vt 0.672000 0.016000
vt 0.672000 0.984000
vt 0.984000 0.984000
vt 0.984000 0.016000
vt 0.328000 0.984000
vt 0.328000 0.016000
vt 0.016000 0.016000
vt 0.016000 0.984000
vn 0.476400 -0.055400 0.877500
vn 0.417000 -0.064100 0.906600
vn 0.010300 -0.061900 0.998000
vn 0.025400 -0.061600 0.997800
vn 0.781800 -0.021300 0.623200
vn 0.862100 0.010200 0.506600
vn 0.947700 0.024800 0.318200
vn 0.930000 -0.009900 0.367400
vn -0.472200 -0.038500 0.880600
vn -0.421100 -0.024000 0.906700
vn -0.785300 -0.006400 0.619000
vn -0.928000 -0.009900 0.372300
vn -0.947000 0.027200 0.320000
vn -0.866800 0.015300 0.498400
usemtl RefRep.227_Teeth.
s 1
f 1/1/1 2/2/2 3/3/3
f 1/1/1 3/3/3 4/4/4
f 5/5/5 6/6/6 7/7/7
f 5/5/5 7/7/7 8/8/8
f 1/1/1 6/6/6 5/5/5
f 1/1/1 5/5/5 2/2/2
f 9/1/9 4/4/4 3/3/3
f 9/1/9 3/3/3 10/2/10
f 11/5/11 12/8/12 13/7/13
f 11/5/11 13/7/13 14/6/14
f 9/1/9 10/2/10 11/5/11
f 9/1/9 11/5/11 14/6/14
