# Blender v2.74 (sub 0) OBJ File: 'Worm.blend'
# www.blender.org
mtllib Hands.mtl
o Inst3D_RefRep.223_Ref
v 1.752920 2.514275 1.202714
v 1.672920 2.489295 1.469870
v 1.747208 2.278037 1.333041
v 1.741645 2.881969 1.029604
v 1.728670 2.931477 0.691353
v 1.391084 3.001786 0.776882
v 1.414853 2.921338 1.083078
v 1.019610 2.719326 0.551235
v 1.324362 2.936245 0.450819
v 1.287117 2.736144 0.316529
v 1.094638 2.597641 0.376796
v 1.244568 2.324706 0.493936
v 1.564286 2.637655 0.406756
v 1.639822 2.577409 0.692312
v 0.905427 2.401120 0.762139
v 1.252643 2.225447 0.918940
v 1.082125 2.375547 1.136561
v 1.701295 2.733588 0.851918
v 1.456806 2.438323 1.148100
v 1.640115 2.536534 0.994340
v 1.673169 2.700991 1.179613
v 1.549327 2.637585 1.188048
v 1.442214 2.659302 1.335122
v 1.347617 2.480827 1.302172
v 0.992102 2.635388 1.036959
v 1.470499 2.284298 1.382337
v 1.579776 2.283196 1.123683
v 1.593464 2.592650 0.129663
v 1.828669 2.564691 0.172821
v 1.676731 2.368191 0.170770
v 0.975096 2.749158 0.796523
v 1.654164 2.780549 0.514654
v 1.599709 2.909111 0.405616
v 1.498959 2.781557 0.309990
v 1.809832 2.793117 0.276288
v 1.599795 2.737639 0.218406
v 1.761027 2.625454 0.439419
v 1.768597 2.456825 0.390341
v 1.574865 2.598394 0.362600
v 1.539154 2.486508 0.334581
v 1.729594 2.419801 0.424722
v 1.983379 2.426990 0.533202
v 1.815939 2.206152 0.537193
v 1.854420 2.561288 0.830546
v 1.707706 2.494628 1.018527
v 2.028985 2.667385 0.999955
v 1.864539 2.599448 1.182615
v 1.880490 2.356837 1.207575
v 2.055369 2.357562 1.002381
v 1.674799 2.313277 1.051255
v 1.781525 2.644428 0.455834
v 1.978067 2.709382 0.596576
v 1.852280 2.565889 0.806164
v 1.850816 2.331234 0.782767
v 1.684743 2.499096 0.668229
v 1.629013 2.317086 0.655532
v 1.889688 2.160135 1.033095
v 1.851317 2.320317 0.826605
v -1.605948 2.580388 1.087807
v -1.577968 2.361543 1.242615
v -1.487501 2.586181 1.341037
v -1.625169 2.923472 0.872232
v -1.295126 2.964731 0.866794
v -1.322372 3.003652 0.554032
v -1.668223 2.927537 0.534198
v -0.990841 2.687244 0.309693
v -1.092699 2.546448 0.167523
v -1.293396 2.678418 0.121628
v -1.309171 2.894508 0.233037
v -1.219784 2.293809 0.342890
v -1.577832 2.575379 0.567482
v -1.550627 2.598366 0.268328
v -0.841830 2.399047 0.538625
v -0.956278 2.426133 0.936969
v -1.158216 2.251651 0.771376
v -1.612283 2.752197 0.711902
v -1.320908 2.495829 1.000043
v -1.408068 2.700747 1.028687
v -1.531917 2.763092 1.032477
v -1.528318 2.576343 0.866958
v -1.279194 2.737756 1.152968
v -0.883754 2.668934 0.790666
v -1.190606 2.555760 1.127769
v -1.296976 2.371221 1.248457
v -1.443973 2.340175 1.011305
v -1.656918 2.469462 0.001883
v -1.791985 2.286650 0.086837
v -1.874817 2.519836 0.092993
v -0.906866 2.749417 0.536849
v -1.622059 2.753916 0.369669
v -1.588095 2.865437 0.236149
v -1.502343 2.726170 0.143366
v -1.601325 2.644137 0.072664
v -1.790051 2.742613 0.161595
v -1.804014 2.412464 0.306048
v -1.734253 2.581252 0.331845
v -1.568217 2.514771 0.228491
v -1.593531 2.364760 0.205058
v -1.770223 2.367022 0.337900
v -1.888472 2.198544 0.490326
v -1.979087 2.461252 0.489937
v -1.758068 2.573932 0.738519
v -1.882201 2.728306 0.921314
v -1.583076 2.501717 0.904484
v -1.961904 2.444611 0.969352
v -1.755633 2.402540 1.136151
v -1.691952 2.651757 1.079694
v -1.612953 2.286656 0.950887
v -1.747986 2.605592 0.350204
v -1.906316 2.720031 0.513021
v -1.829981 2.342577 0.719263
v -1.759638 2.575725 0.715195
v -1.656467 2.250879 0.555393
v -1.630911 2.465351 0.558062
v -1.824117 2.335411 0.763319
v -1.861039 2.209390 0.992152
vt 0.688000 0.188000
vt 0.688000 0.359000
vt 0.547000 0.188000
vt 0.500000 0.750000
vt 0.656000 0.875000
vt 0.688000 0.750000
vt 0.594000 0.688000
vt 0.844000 0.625000
vt 0.844000 0.813000
vt 0.969000 0.813000
vt 0.938000 0.625000
vt 0.281000 0.250000
vt 0.031000 0.297000
vt 0.141000 0.500000
vt 0.453000 0.188000
vt 0.453000 0.375000
vt 0.516000 0.375000
vt 0.531000 0.906000
vt 0.438000 0.500000
vt 0.313000 0.641000
vt 0.406000 0.688000
vt 0.438000 0.609000
vt 0.547000 0.609000
vt 0.641000 0.453000
vt 0.547000 0.500000
vt 0.672000 0.531000
vt 0.984000 0.187000
vt 0.984000 0.359000
vt 0.984000 0.016000
vt 0.688000 0.016000
vt 0.188000 0.625000
vt 0.750000 0.594000
vt 0.031000 0.453000
vt 0.813000 0.922000
vt 0.703000 0.984000
vt 0.813000 0.484000
vt 0.266000 0.125000
vt 0.125000 0.141000
vt 0.016000 0.188000
vt 0.984000 0.188000
vt 0.828000 0.359000
vt 0.828000 0.188000
vt 0.688000 0.187000
vt 0.828000 0.016000
vt 0.938000 0.938000
vt 0.828000 0.187000
vn 0.805400 0.401000 -0.436400
vn 0.386400 0.277300 0.879700
vn 0.713200 -0.666400 0.217200
vn 0.549700 0.787000 0.280200
vn 0.606900 0.791800 -0.068400
vn -0.171400 0.983300 0.061000
vn -0.178100 0.846200 0.502200
vn -0.805100 0.448000 -0.388600
vn -0.284600 0.836300 -0.468600
vn -0.232500 0.111600 -0.966200
vn -0.536200 -0.088100 -0.839500
vn 0.032700 -0.809100 -0.586700
vn 0.223200 -0.929400 -0.293800
vn 0.144500 -0.984900 -0.094900
vn -0.889700 -0.445200 -0.101400
vn 0.088600 -0.991100 0.099600
vn -0.558900 -0.508700 0.654900
vn 0.997200 0.043500 -0.060300
vn 0.196100 -0.954100 -0.226200
vn 0.280100 -0.958800 0.047000
vn 0.341500 0.011800 0.939800
vn 0.763200 -0.114200 0.636000
vn -0.121600 0.498900 0.858100
vn -0.568800 -0.299200 0.766100
vn -0.785000 0.337100 0.519700
vn -0.514700 -0.692200 0.505800
vn -0.020900 -0.623700 -0.781400
vn -0.531900 0.143000 -0.834600
vn 0.814000 -0.046300 -0.579000
vn -0.028700 -0.881600 -0.471100
vn -0.802200 0.591200 0.083100
vn 0.884000 0.167500 -0.436400
vn 0.338100 0.847900 -0.408200
vn -0.256100 0.205600 -0.944500
vn 0.727400 0.645800 -0.231800
vn -0.471100 0.474700 -0.743400
vn 0.538100 -0.108700 0.835800
vn 0.475900 -0.606000 0.637400
vn -0.870000 -0.125700 0.476700
vn -0.849700 -0.376900 0.368500
vn -0.427100 -0.085500 -0.900100
vn 0.907100 -0.218300 -0.359800
vn 0.128800 -0.937400 -0.323400
vn 0.083100 0.091900 -0.992300
vn -0.915100 -0.397300 0.069000
vn 0.870000 0.488400 -0.067400
vn 0.197100 0.169100 0.965700
vn 0.112400 -0.249300 0.961900
vn 0.964800 -0.256000 -0.060800
vn -0.925000 -0.354700 0.135800
vn -0.126900 0.238600 -0.962800
vn 0.877500 0.460500 -0.133800
vn 0.358300 -0.045700 0.932500
vn 0.280700 -0.498600 0.820100
vn -0.970300 -0.056200 0.235000
vn -0.888600 -0.395000 0.233100
vn 0.132200 -0.988300 0.076100
vn -0.085000 -0.377100 -0.922200
vn -0.865900 0.350900 -0.356500
vn -0.665100 -0.631400 0.398800
vn -0.255400 0.380200 0.888900
vn -0.515700 0.814600 0.265500
vn 0.251500 0.902100 0.350500
vn 0.171700 0.980200 -0.098500
vn -0.621300 0.780200 -0.072300
vn 0.727700 0.378500 -0.572000
vn 0.391300 -0.205100 -0.897100
vn 0.070400 -0.021100 -0.997300
vn 0.199300 0.763600 -0.614100
vn -0.124400 -0.878400 -0.461400
vn -0.093800 -0.993800 0.059600
vn 0.000300 -0.998700 -0.050100
vn 0.863300 -0.469600 -0.184700
vn 0.659600 -0.428700 0.617300
vn -0.066500 -0.967600 0.243500
vn -0.993100 0.054200 0.103400
vn -0.217100 -0.973600 -0.070300
vn -0.646400 -0.026400 0.762500
vn -0.187000 0.168200 0.967800
vn -0.131400 -0.979200 0.154600
vn 0.254900 0.599900 0.758300
vn 0.857600 0.388900 0.336500
vn 0.686900 -0.205000 0.697200
vn 0.593200 -0.630800 0.500200
vn -0.089100 -0.710500 -0.698000
vn 0.345300 -0.108800 -0.932200
vn -0.337500 -0.872900 -0.352200
vn -0.898700 0.133300 -0.417600
vn 0.801300 0.583800 -0.130400
vn -0.943800 0.124200 -0.306400
vn -0.417100 0.786800 -0.455000
vn 0.123500 0.110900 -0.986100
vn 0.445400 0.223500 -0.867000
vn -0.686300 0.698400 -0.202700
vn -0.475300 -0.399700 0.783800
vn -0.307900 0.039100 0.950600
vn 0.911100 -0.261800 0.318300
vn 0.731000 -0.635400 0.248700
vn 0.156800 -0.275900 -0.948300
vn -0.469900 -0.865700 -0.172200
vn -0.986400 0.020200 -0.163200
vn -0.201800 -0.026600 -0.979100
vn -0.817700 0.574500 0.037000
vn 0.904200 -0.416800 -0.093300
vn -0.987100 0.016800 0.159100
vn 0.054200 -0.151000 0.987000
vn 0.056900 0.226500 0.972300
vn 0.784200 -0.620500 0.006900
vn 0.046800 0.093000 -0.994600
vn -0.828400 0.558100 -0.047200
vn -0.221700 -0.345500 0.911800
vn -0.101500 0.071700 0.992200
vn 0.739300 -0.664000 0.111800
vn 0.964800 -0.251300 0.077000
vn -0.232100 -0.440300 -0.867300
vn -0.400400 -0.888600 0.223600
usemtl RefRep.223_Hands.
s 1
f 1/1/1 2/2/2 3/3/3
f 4/4/4 5/5/5 6/6/6
f 4/4/4 6/6/6 7/7/7
f 8/8/8 9/9/9 10/10/10
f 8/8/8 10/10/10 11/11/11
f 12/12/12 13/13/13 14/14/14
f 15/15/15 16/16/16 17/17/17
f 5/5/5 4/4/4 18/18/18
f 19/19/19 20/20/20 21/21/21
f 19/19/19 21/21/21 22/22/22
f 23/23/23 4/4/4 7/7/7
f 17/24/17 24/25/24 23/23/23
f 17/24/17 23/23/23 25/26/25
f 16/16/16 19/19/19 24/25/24
f 16/16/16 24/25/24 17/17/17
f 21/21/21 4/4/4 23/23/23
f 21/21/21 23/23/23 22/22/22
f 22/27/22 23/28/23 2/2/2
f 2/2/2 1/1/1 22/27/22
f 23/28/23 24/27/24 26/1/26
f 23/28/23 26/1/26 2/2/2
f 24/27/24 19/29/19 27/30/27
f 24/27/24 27/30/27 26/1/26
f 22/27/22 1/1/1 19/29/19
f 19/29/19 1/1/1 27/30/27
f 3/3/3 2/2/2 26/1/26
f 27/30/27 3/3/3 26/1/26
f 1/1/1 3/3/3 27/30/27
f 20/20/20 14/14/14 18/31/18
f 28/1/28 29/2/29 30/3/30
f 31/32/31 6/6/6 9/9/9
f 31/32/31 9/9/9 8/8/8
f 14/14/14 13/13/13 32/33/32
f 33/34/33 5/5/5 32/35/32
f 25/26/25 15/36/15 17/24/17
f 8/8/8 15/36/15 31/32/31
f 11/37/11 10/38/10 34/39/34
f 11/37/11 34/39/34 13/13/13
f 11/37/11 13/13/13 12/12/12
f 25/26/25 7/7/7 6/6/6
f 25/26/25 6/6/6 31/32/31
f 31/32/31 15/36/15 25/26/25
f 23/23/23 7/7/7 25/26/25
f 11/11/11 15/36/15 8/8/8
f 34/40/34 33/28/33 35/41/35
f 34/40/34 35/41/35 36/42/36
f 35/41/35 37/42/37 38/43/38
f 35/41/35 38/43/38 29/2/29
f 32/40/32 13/29/13 39/44/39
f 32/40/32 39/44/39 37/42/37
f 13/29/13 34/40/34 36/42/36
f 13/29/13 36/42/36 39/44/39
f 28/1/28 30/3/30 40/30/40
f 30/3/30 29/2/29 38/43/38
f 40/30/40 30/3/30 38/43/38
f 36/42/36 35/41/35 29/2/29
f 36/42/36 29/2/29 28/1/28
f 33/28/33 37/42/37 35/41/35
f 39/44/39 36/42/36 28/1/28
f 39/44/39 28/1/28 40/30/40
f 37/42/37 39/44/39 40/30/40
f 37/42/37 40/30/40 38/43/38
f 9/9/9 6/6/6 5/5/5
f 9/9/9 5/5/5 33/34/33
f 10/10/10 9/9/9 33/34/33
f 10/10/10 33/34/33 34/45/34
f 12/12/12 16/16/16 15/15/15
f 12/12/12 15/15/15 11/37/11
f 41/1/41 42/2/42 43/3/43
f 18/40/18 4/28/4 44/42/44
f 20/29/20 18/40/18 44/42/44
f 20/29/20 44/42/44 45/44/45
f 46/41/46 47/42/47 48/1/48
f 46/41/46 48/1/48 49/2/49
f 47/42/47 45/44/45 50/30/50
f 47/42/47 50/30/50 48/1/48
f 51/42/51 52/41/52 42/2/42
f 51/42/51 42/2/42 41/1/41
f 52/41/52 53/46/53 54/1/54
f 52/41/52 54/1/54 42/2/42
f 53/46/53 55/44/55 56/30/56
f 53/46/53 56/30/56 54/1/54
f 55/44/55 51/42/51 41/1/41
f 55/44/55 41/1/41 56/30/56
f 49/2/49 57/3/57 58/43/58
f 58/43/58 57/3/57 50/30/50
f 49/2/49 48/1/48 57/3/57
f 50/30/50 57/3/57 48/1/48
f 41/1/41 43/3/43 56/30/56
f 43/3/43 42/2/42 54/1/54
f 56/30/56 43/3/43 54/1/54
f 4/28/4 47/42/47 46/41/46
f 21/40/21 20/29/20 45/44/45
f 21/40/21 45/44/45 47/42/47
f 44/42/44 46/41/46 49/2/49
f 44/42/44 49/2/49 58/43/58
f 45/44/45 44/42/44 58/43/58
f 45/44/45 58/43/58 50/30/50
f 5/28/5 53/46/53 52/41/52
f 18/40/18 14/29/14 55/44/55
f 18/40/18 55/44/55 53/46/53
f 14/29/14 32/40/32 51/42/51
f 14/29/14 51/42/51 55/44/55
f 32/40/32 5/28/5 51/42/51
f 16/16/16 20/20/20 19/19/19
f 16/16/16 14/14/14 20/20/20
f 12/12/12 14/14/14 16/16/16
f 44/42/44 4/28/4 46/41/46
f 4/28/4 21/40/21 47/42/47
f 5/28/5 18/40/18 53/46/53
f 51/42/51 5/28/5 52/41/52
f 33/28/33 32/40/32 37/42/37
f 59/1/59 60/3/60 61/2/61
f 62/4/62 63/7/63 64/6/64
f 62/4/62 64/6/64 65/5/65
f 66/8/66 67/11/67 68/10/68
f 66/8/66 68/10/68 69/9/69
f 70/12/70 71/14/71 72/13/72
f 73/15/73 74/17/74 75/16/75
f 76/18/76 62/4/62 65/5/65
f 77/19/77 78/22/78 79/21/79
f 77/19/77 79/21/79 80/20/80
f 81/23/81 63/7/63 62/4/62
f 74/24/74 82/26/82 81/23/81
f 74/24/74 81/23/81 83/25/83
f 75/16/75 74/17/74 83/25/83
f 75/16/75 83/25/83 77/19/77
f 79/21/79 78/22/78 81/23/81
f 79/21/79 81/23/81 62/4/62
f 78/40/78 59/1/59 61/2/61
f 78/40/78 61/2/61 81/28/81
f 81/28/81 61/2/61 84/1/84
f 81/28/81 84/1/84 83/40/83
f 83/40/83 84/1/84 85/30/85
f 83/40/83 85/30/85 77/29/77
f 77/29/77 85/30/85 59/1/59
f 77/29/77 59/1/59 78/40/78
f 60/3/60 84/1/84 61/2/61
f 85/30/85 84/1/84 60/3/60
f 59/1/59 85/30/85 60/3/60
f 80/20/80 76/31/76 71/14/71
f 86/1/86 87/3/87 88/2/88
f 89/32/89 66/8/66 69/9/69
f 89/32/89 69/9/69 64/6/64
f 71/14/71 90/33/90 72/13/72
f 91/34/91 90/35/90 65/5/65
f 82/26/82 74/24/74 73/36/73
f 66/8/66 89/32/89 73/36/73
f 67/37/67 70/12/70 72/13/72
f 67/37/67 72/13/72 92/39/92
f 67/37/67 92/39/92 68/38/68
f 82/26/82 89/32/89 64/6/64
f 82/26/82 64/6/64 63/7/63
f 89/32/89 82/26/82 73/36/73
f 81/23/81 82/26/82 63/7/63
f 67/11/67 66/8/66 73/36/73
f 92/40/92 93/42/93 94/41/94
f 92/40/92 94/41/94 91/28/91
f 94/41/94 88/2/88 95/1/95
f 94/41/94 95/1/95 96/46/96
f 90/40/90 96/46/96 97/44/97
f 90/40/90 97/44/97 72/29/72
f 72/29/72 97/44/97 93/42/93
f 72/29/72 93/42/93 92/40/92
f 86/1/86 98/30/98 87/3/87
f 87/3/87 95/1/95 88/2/88
f 98/30/98 95/1/95 87/3/87
f 93/42/93 86/1/86 88/2/88
f 93/42/93 88/2/88 94/41/94
f 91/28/91 96/46/96 90/40/90
f 97/44/97 98/30/98 86/1/86
f 97/44/97 86/1/86 93/42/93
f 96/46/96 95/1/95 98/30/98
f 96/46/96 98/30/98 97/44/97
f 69/9/69 91/34/91 65/5/65
f 69/9/69 65/5/65 64/6/64
f 68/10/68 92/45/92 91/34/91
f 68/10/68 91/34/91 69/9/69
f 70/12/70 73/15/73 75/16/75
f 70/12/70 67/37/67 73/15/73
f 99/1/99 100/3/100 101/2/101
f 62/28/62 102/42/102 103/41/103
f 80/29/80 104/44/104 102/42/102
f 80/29/80 102/42/102 76/40/76
f 103/41/103 105/2/105 106/1/106
f 103/41/103 106/1/106 107/42/107
f 107/42/107 106/1/106 108/30/108
f 107/42/107 108/30/108 104/44/104
f 109/42/109 99/1/99 101/2/101
f 109/42/109 101/2/101 110/41/110
f 110/41/110 101/2/101 111/1/111
f 110/41/110 111/1/111 112/42/112
f 112/42/112 111/1/111 113/30/113
f 112/42/112 113/30/113 114/44/114
f 114/44/114 113/30/113 99/1/99
f 114/44/114 99/1/99 109/42/109
f 105/2/105 115/1/115 116/3/116
f 115/1/115 108/30/108 116/3/116
f 105/2/105 116/3/116 106/1/106
f 108/30/108 106/1/106 116/3/116
f 99/1/99 113/30/113 100/3/100
f 100/3/100 111/1/111 101/2/101
f 113/30/113 111/1/111 100/3/100
f 62/28/62 107/42/107 79/40/79
f 79/40/79 107/42/107 104/44/104
f 79/40/79 104/44/104 80/29/80
f 102/42/102 115/1/115 105/2/105
f 102/42/102 105/2/105 103/41/103
f 104/44/104 108/30/108 115/1/115
f 104/44/104 115/1/115 102/42/102
f 65/28/65 112/42/112 76/40/76
f 76/40/76 112/42/112 114/44/114
f 76/40/76 114/44/114 71/29/71
f 71/29/71 114/44/114 109/42/109
f 71/29/71 109/42/109 90/40/90
f 65/28/65 109/42/109 110/41/110
f 75/16/75 77/19/77 80/20/80
f 75/16/75 80/20/80 71/14/71
f 70/12/70 75/16/75 71/14/71
f 62/28/62 103/41/103 107/42/107
f 76/40/76 102/42/102 62/28/62
f 65/28/65 110/41/110 112/42/112
f 90/40/90 109/42/109 65/28/65
f 91/28/91 94/41/94 96/46/96
